<svg width="26" height="28" viewBox="0 0 26 28" fill="none" xmlns="http://www.w3.org/2000/svg">
<path d="M11.2066 23.9329C8.02833 24.8293 5.70743 23.3886 4.94427 22.5562C2.9806 20.5572 3.67188 17.0958 4.09714 15.6961C4.43734 14.5763 4.36562 13.3592 4.28723 12.8907C3.60736 11.9765 1.90485 9.69916 0.5338 7.90363C-0.837251 6.10811 0.753604 4.85084 1.72041 4.44664C2.82065 4.51147 4.98281 5.23523 4.82957 7.61163C4.67633 9.98802 6.10979 12.1914 6.84567 12.996C7.11987 13.1085 7.93509 13.0387 9.00237 11.8594C10.0696 10.68 10.5272 5.24798 10.0595 3.2724C9.71478 1.81654 11.057 -0.077165 12.5754 0.00239537C14.0939 0.0819557 14.9055 2.76718 14.3549 4.14627C13.078 7.34474 9.91317 13.4196 12.2825 14.3654C14.6518 15.3111 18.5271 11.5588 20.1685 9.56446C21.1714 8.19737 23.5699 5.86298 25.1409 7.46212C26.7118 9.06127 24.3351 11.4179 22.9504 12.3963C19.8824 13.8826 13.8727 17.5168 14.3775 20.1633C14.8823 22.8097 18.8095 23.1199 20.7099 22.9441C21.4532 22.9232 22.9519 23.3604 23.0009 25.2762C23.0499 27.1921 20.8646 27.2112 19.7658 26.9812C18.2371 25.5916 14.385 23.0365 11.2066 23.9329Z" fill="#FF4C85"/>
</svg>
